<?xml version="1.0" standalone="no"?>
<!DOCTYPE svg PUBLIC "-//W3C//DTD SVG 20010904//EN"
 "http://www.w3.org/TR/2001/REC-SVG-20010904/DTD/svg10.dtd">
<svg version="1.0" xmlns="http://www.w3.org/2000/svg"
 width="260.000000pt" height="260.000000pt" viewBox="0 0 260.000000 260.000000"
 preserveAspectRatio="xMidYMid meet">
<metadata>
Created by potrace 1.11, written by Peter Selinger 2001-2013
</metadata>
<g transform="translate(0.000000,260.000000) scale(0.100000,-0.100000)"
fill="#000000" stroke="none">
<path d="M1134 2590 c-236 -33 -460 -128 -636 -269 -247 -196 -409 -460 -475
-771 -25 -118 -25 -382 0 -500 57 -266 169 -474 361 -665 195 -194 395 -302
667 -361 118 -26 380 -26 498 0 273 59 474 167 667 360 193 193 301 394 360
667 14 62 18 127 18 249 0 122 -4 187 -18 249 -59 273 -167 474 -360 667 -192
191 -402 305 -661 359 -92 19 -332 28 -421 15z m-394 -950 l0 -480 330 0 331
0 -3 -62 -3 -63 -415 0 -415 0 -3 543 -2 542 90 0 90 0 0 -480z m1390 -225 l0
-125 -24 0 c-21 0 -25 6 -30 48 -4 26 -9 63 -12 83 l-5 36 -76 7 c-42 3 -107
6 -145 6 l-68 0 0 -460 c0 -253 1 -460 3 -461 1 0 36 -6 77 -12 64 -10 75 -15
75 -32 0 -19 -8 -20 -222 -23 l-223 -2 0 23 c0 22 5 25 73 33 l72 9 3 463 2
462 -87 0 c-49 0 -111 -3 -140 -6 l-51 -7 -6 -46 c-17 -123 -16 -121 -42 -121
l-24 0 0 125 0 125 425 0 425 0 0 -125z"/>
</g>
</svg>
